<svg xmlns="http://www.w3.org/2000/svg" xmlns:xlink="http://www.w3.org/1999/xlink" width="246.085" height="50" viewBox="0 0 246.085 50"><g fill="#FFF"><path d="M25.119-.214C11.247-.214 0 11.026 0 24.893 0 38.758 11.247 50 25.119 50s25.12-11.242 25.12-25.107C50.24 11.026 38.992-.214 25.119-.214zm0 48.815C12.017 48.601 1.4 37.983 1.4 24.893c0-13.094 10.617-23.709 23.719-23.709 13.097 0 23.72 10.615 23.72 23.709 0 13.09-10.623 23.708-23.72 23.708z"/><path d="M35.848 20.297c-.831 0-1.567.424-2 1.069l-7.938-2.183c.02-.163.037-.327.037-.489a3.534 3.534 0 1 0-7.066 0 3.531 3.531 0 0 0 2.396 3.338l-.681 4.266a5.03 5.03 0 1 0-1.073 9.945 5.034 5.034 0 0 0 5.034-5.032c0-.719-.154-1.4-.428-2.021l9.751-5.106a2.41 2.41 0 0 0 4.383-1.38 2.409 2.409 0 0 0-2.415-2.407zm-12.129 8.142a5.043 5.043 0 0 0-2.299-1.884l.695-4.346a3.522 3.522 0 0 0 3.573-2.2l7.816 2.149a2.673 2.673 0 0 0-.062.544c0 .208.03.409.079.604l-9.802 5.133z"/></g><defs><path id="a" d="M62.506 6.883h183.579v36.234H62.506z"/></defs><clipPath id="b"><use xlink:href="#a" overflow="visible"/></clipPath><path clip-path="url(#b)" fill="#FFF" d="M74.479 33.15c-3.066 1.382-7.519 1.133-9.413-1.23-1.205-1.501-1.277-5.82 3.552-6.801 4.922-1.001 8.167 0 8.167 0s.909 6.582-2.306 8.031zm-6.293-18.556c-2.269.303-3.698 1.61-3.698 1.61l1.112 1.863s2.537-2.174 6.885-1.495c2.358.369 4.072 1.819 4.29 6.394 0 0-13.167-1.82-14.153 4.881-1.194 8.118 7.172 8.902 11.606 7.504 3.24-1.022 3.977-3.314 4.392-4.921.635-2.45.454-6.275.025-9.465-.183-1.357-.539-7.697-10.459-6.371z"/><path fill="#FFF" d="M162.529 33.15c-3.064 1.382-7.52 1.133-9.411-1.23-1.206-1.501-1.277-5.82 3.55-6.801 4.924-1.001 8.168 0 8.168 0s.909 6.582-2.307 8.031zm-6.292-18.556c-2.269.303-3.697 1.61-3.697 1.61l1.111 1.863s2.537-2.174 6.886-1.495c2.357.369 4.07 1.819 4.288 6.394 0 0-13.166-1.82-14.152 4.881-1.195 8.118 7.17 8.902 11.605 7.504 3.24-1.022 3.979-3.314 4.393-4.921.634-2.45.454-6.275.024-9.465-.178-1.357-.538-7.697-10.458-6.371zm26.103 3.375s-2.713-2.811-6.534-1.294c-1.741.689-2.469 2.502-2.116 3.856.422 1.631 2.043 2.704 4.166 3.262 4.821 1.267 6.106 3.049 6.422 5.314.462 3.32-2.152 6.725-6 6.74-4.71.021-7.428-3.237-7.428-3.237l1.721-1.45s5.982 5.441 9.391.544c.966-1.389.725-4.167-2.688-5.436-3.912-1.454-7.034-2.173-7.699-5.312-1.197-5.658 6.341-8.879 12.079-4.413l-1.314 1.426zm16.069-1.666c7.486.072 6.791 8.334 6.791 8.334h-14.062c.001-1.086 1.05-8.393 7.271-8.334zm6.778 16.149c-4.105 2.439-8.553 1.716-10.629.447-3.456-2.113-3.443-6.522-3.443-6.522l15.809.015c.182-1.01.071-3.173 0-4.227-.311-4.594-3.343-7.628-8.476-7.685-5.496-.062-8.555 4.166-9.16 8.031-1.149 7.361 1.391 13.287 10.155 13.333 4.631.022 6.702-1.732 6.702-1.732l-.958-1.66zm-67.461 1.625c-5.229.35-6.426-4.234-6.537-5.214-.256-2.278-.198-6.218-.139-10.204 0 0 1.701-2.396 6.586-2.065 4.029.271 6.679 2.783 6.541 8.57-.119 5.042-1.389 8.576-6.451 8.913zm7.438-3.035c1.264-2.89 1.591-8.503-.305-12.008-1.497-2.763-4.019-4.426-7.758-4.426-4.188 0-6.111 1.624-6.111 1.624V7.245h-2.175v19.217c0 2.673.812 5.375 2.291 7.067 1.295 1.48 4.054 2.86 7.908 2.221 3.369-.561 5.046-2.187 6.15-4.708zm-45.676-5.805c.139 5.786-2.512 8.3-6.541 8.57-4.884.329-6.586-2.065-6.586-2.065-.062-3.985-.117-7.926.138-10.204.111-.979 1.309-5.564 6.537-5.214 5.063.338 6.331 3.87 6.452 8.913zm-5.133-10.584c-3.854-.64-6.583.741-7.877 2.219-1.479 1.691-2.231 4.394-2.231 7.067v19.179h2.174V34.17s1.863 1.624 6.051 1.624c3.739 0 6.202-1.664 7.696-4.427 1.896-3.506 1.569-9.12.305-12.007-1.104-2.524-2.75-4.148-6.118-4.707zm27.236 10.584c.14 5.786-2.512 8.3-6.54 8.57-4.883.329-6.585-2.065-6.585-2.065-.061-3.985-.118-7.926.139-10.204.11-.979 1.309-5.564 6.536-5.214 5.061.338 6.329 3.87 6.45 8.913zm-5.133-10.584c-3.854-.64-6.583.741-7.877 2.219-1.48 1.691-2.231 4.394-2.231 7.067v19.179h2.174V34.17s1.863 1.624 6.05 1.624c3.739 0 6.202-1.664 7.696-4.427 1.896-3.506 1.57-9.12.306-12.007-1.104-2.524-2.749-4.148-6.118-4.707zm105.121-7.77v3.986h-1.448V6.883zm-7.247 25.002v3.986h-1.448v-3.986zm5.799-17.393v21.379h1.448V14.492zm16.352 19.779c-4.529 0-8.2-4.063-8.2-9.074 0-5.012 3.669-9.074 8.2-9.074 4.529 0 8.201 4.062 8.201 9.074.001 5.01-3.671 9.074-8.201 9.074zm0-19.781c-5.304 0-9.604 4.756-9.604 10.623 0 5.867 4.3 10.624 9.604 10.624 5.302 0 9.602-4.757 9.602-10.624 0-5.866-4.3-10.623-9.602-10.623z"/></svg>