<svg xmlns="http://www.w3.org/2000/svg" width="265" height="158" viewBox="0 0 265 158"><g fill="none"><path fill="#B4B4B4" d="M263.5 157.5h-152a1 1 0 0 1-1-1V38.982a1 1 0 0 1 1-1h152a1 1 0 0 1 1 1V156.5a1 1 0 0 1-1 1zm-151-2h150V39.982h-150V155.5zm151-126.518h-152a1 1 0 0 1-1-1v-26a1 1 0 0 1 1-1h152a1 1 0 0 1 1 1v26a1 1 0 0 1-1 1zm-151-2h150v-24h-150v24zm-11.5 2H1a1 1 0 0 1-1-1v-26a1 1 0 0 1 1-1h100a1 1 0 0 1 1 1v26a1 1 0 0 1-1 1zm-99-2h98v-24H2v24zm99 93H1a1 1 0 0 1-1-1v-81a1 1 0 0 1 1-1h100a1 1 0 0 1 1 1v81a1 1 0 0 1-1 1zm-99-2h98v-79H2v79z"/><path fill="#F3F3F3" d="M19 49.153a1.83 1.83 0 0 1-1.83 1.83h-4.34a1.83 1.83 0 0 1-1.83-1.83v-4.342c0-1.01.819-1.828 1.83-1.828h4.34c1.011 0 1.83.818 1.83 1.828v4.342zm0 15a1.83 1.83 0 0 1-1.83 1.83h-4.34a1.83 1.83 0 0 1-1.83-1.83v-4.342c0-1.01.819-1.828 1.83-1.828h4.34c1.011 0 1.83.818 1.83 1.828v4.342z"/><path fill="#333" d="M14.685 64.967l-2.841-3.655a.687.687 0 1 1 1.086-.844l2.225 2.862 2.809-4.686a.688.688 0 0 1 1.178.706l-3.325 5.548-1.132.069z"/><path fill="#F3F3F3" d="M19 79.153a1.83 1.83 0 0 1-1.83 1.83h-4.34a1.829 1.829 0 0 1-1.83-1.83v-4.342c0-1.01.819-1.828 1.83-1.828h4.34c1.011 0 1.83.818 1.83 1.828v4.342zm0 14.999c0 1.012-.819 1.83-1.83 1.83h-4.34a1.829 1.829 0 0 1-1.83-1.83V89.81c0-1.01.819-1.828 1.83-1.828h4.34c1.011 0 1.83.818 1.83 1.828v4.342zm0 15c0 1.012-.819 1.83-1.83 1.83h-4.34a1.829 1.829 0 0 1-1.83-1.83v-4.342c0-1.01.819-1.828 1.83-1.828h4.34c1.011 0 1.83.818 1.83 1.828v4.342z"/><path fill="#333" d="M14.685 109.967l-2.841-3.655a.688.688 0 0 1 1.086-.845l2.225 2.863 2.809-4.687a.687.687 0 0 1 1.178.706l-3.325 5.549-1.132.069z"/><path fill="#F3F3F3" d="M117.5 6.982h141v15h-141zm-108.5 4h84v7H9z"/><path fill="#B4B4B4" d="M101 157.929H1a1 1 0 0 1-1-1v-26a1 1 0 0 1 1-1h100a1 1 0 0 1 1 1v26a1 1 0 0 1-1 1zm-99-2h98v-24H2v24z"/><path fill="#F3F3F3" d="M22 43.982h73v5H22zm0 15h73v5H22zm0 15h73v5H22zm0 15h73v5H22zm0 15h73v5H22z"/><g fill="#333"><path d="M246.307 16.682a3.274 3.274 0 0 1-3.271-3.272 3.274 3.274 0 0 1 3.271-3.268 3.273 3.273 0 0 1 3.27 3.268 3.275 3.275 0 0 1-3.27 3.272zm0-5.621a2.354 2.354 0 0 0-2.352 2.349 2.354 2.354 0 0 0 2.352 2.351 2.353 2.353 0 0 0 2.35-2.351 2.353 2.353 0 0 0-2.35-2.349z"/><path d="M251.504 19.069a.462.462 0 0 1-.326-.133l-3.045-3.048a.456.456 0 0 1 0-.651.459.459 0 0 1 .65 0l3.046 3.047a.46.46 0 0 1-.325.785z"/></g><path fill="#CDCCCC" opacity=".3" d="M151.958 61.97H254.5v5.023H151.958zm0 6.85H254.5v5.022H151.958z"/><path fill="#CDCCCC" d="M151.958 52.38h45.667v5.937h-45.667z"/><path fill="#CDCCCC" opacity=".3" d="M120.5 47.711h26.944v26.944H120.5zm31.458 50.058H254.5v5.023H151.958zm0 6.85H254.5v5.022H151.958z"/><path fill="#CDCCCC" d="M151.958 88.179h45.667v5.937h-45.667z"/><path fill="#CDCCCC" opacity=".3" d="M120.5 83.51h26.944v26.944H120.5zm31.458 50.057H254.5v5.023H151.958zm0 6.851H254.5v5.022H151.958z"/><path fill="#CDCCCC" d="M151.958 123.978h45.667v5.937h-45.667z"/><path fill="#CDCCCC" opacity=".3" d="M120.5 119.309h26.944v26.944H120.5z"/><path fill="#F3F3F3" d="M9 143h84v3H9z"/><path fill="#333" d="M25 143h52v3H25z"/><circle cx="25" cy="144.5" r="3" fill="#333"/><circle cx="77" cy="144.5" r="3" fill="#333"/></g></svg>