<svg xmlns="http://www.w3.org/2000/svg" width="304" height="148" viewBox="0 0 304 148"><g fill="none"><path fill="#F3F3F3" d="M18.806 71.743a1.953 1.953 0 0 1-1.953 1.953h-4.631a1.953 1.953 0 0 1-1.953-1.953v-4.634c0-1.077.875-1.951 1.953-1.951h4.631c1.079 0 1.953.874 1.953 1.951v4.634zm0 16.007a1.953 1.953 0 0 1-1.953 1.953h-4.631a1.953 1.953 0 0 1-1.953-1.953v-4.634c0-1.077.875-1.95 1.953-1.95h4.631c1.079 0 1.953.873 1.953 1.95v4.634z"/><path fill="#333" d="M14.201 88.619l-3.032-3.9a.733.733 0 1 1 1.158-.901l2.374 3.055 2.997-5.001a.735.735 0 0 1 1.006-.252.735.735 0 0 1 .252 1.006l-3.548 5.921-1.207.072z"/><path fill="#F3F3F3" d="M18.806 103.758a1.953 1.953 0 0 1-1.953 1.952h-4.631a1.952 1.952 0 0 1-1.953-1.952v-4.635c0-1.077.875-1.95 1.953-1.95h4.631c1.079 0 1.953.873 1.953 1.95v4.635zm0 16.007a1.953 1.953 0 0 1-1.953 1.952h-4.631a1.952 1.952 0 0 1-1.953-1.952v-4.634c0-1.078.875-1.951 1.953-1.951h4.631c1.079 0 1.953.873 1.953 1.951v4.634zm0 16.006a1.954 1.954 0 0 1-1.953 1.953h-4.631a1.953 1.953 0 0 1-1.953-1.953v-4.634c0-1.077.875-1.95 1.953-1.95h4.631c1.079 0 1.953.873 1.953 1.95v4.634z"/><path fill="#333" d="M14.201 136.641l-3.032-3.901a.732.732 0 1 1 1.158-.9l2.374 3.054 2.997-5a.734.734 0 0 1 1.258.754l-3.548 5.921-1.207.072z"/><path fill="#F3F3F3" d="M22.007 66.226h77.261v5.336H22.007zm0 16.006h77.261v5.336H22.007zm0 16.008h77.261v5.336H22.007zm0 16.007h77.261v5.336H22.007zm0 16.007h77.261v5.336H22.007zM5.769 6.108h95.5v14.207h-95.5z"/><g fill="#333"><path d="M92.578 14.78a2.334 2.334 0 0 1-2.332-2.333 2.333 2.333 0 0 1 4.663 0 2.335 2.335 0 0 1-2.331 2.333zm0-4.008c-.924 0-1.676.752-1.676 1.675 0 .924.752 1.676 1.676 1.676a1.676 1.676 0 0 0 0-3.351z"/><path d="M96.282 16.481a.329.329 0 0 1-.232-.095l-2.171-2.173a.328.328 0 0 1 .464-.464l2.171 2.172a.328.328 0 0 1-.232.56z"/></g><path fill="#CDCCCC" opacity=".3" d="M207.575 34.178h86.693v5.292h-86.693zm0 7.217h86.693v5.292h-86.693z"/><path fill="#CDCCCC" d="M207.575 24.074h48.11v6.255h-48.11z"/><path fill="#CDCCCC" opacity=".3" d="M174.436 19.156h28.385v28.385h-28.385zm33.139 52.735h86.693v5.292h-86.693zm0 7.216h86.693v5.291h-86.693zm0 29.886h86.693v5.292h-86.693zm0 7.216h86.693v5.291h-86.693z"/><path fill="#CDCCCC" d="M207.575 61.788h48.11v6.254h-48.11z"/><path fill="#CDCCCC" opacity=".3" d="M174.436 56.87h28.385v28.385h-28.385z"/><path fill="#CDCCCC" d="M207.575 99.502h48.11v6.254h-48.11z"/><path fill="#CDCCCC" opacity=".3" d="M174.436 94.582h28.385v28.387h-28.385z"/><path fill="#E6E6E5" d="M143.117 56.427h22.008v2.701h-22.008zM107.04 12.731l28.559 42.825-2.078 1.725-28.56-42.824z"/><path fill="#E6E6E5" d="M133.486 55.611l2.151 1.634-28.562 46.814-2.15-1.634z"/><path fill="#F50057" d="M302.418 132.951H165.574c-.745 0-1.35-.605-1.35-1.351V10.062a1.35 1.35 0 0 1 1.35-1.351h136.844c.745 0 1.35.604 1.35 1.351V131.6c0 .746-.605 1.351-1.35 1.351zm-135.492-2.701h134.141V11.413H166.926V130.25z"/><path fill="#B4B4B4" d="M106.003 25.817H1.168a.9.9 0 0 1-.9-.9V1.51a.9.9 0 0 1 .9-.9h104.834a.9.9 0 0 1 .9.9v23.407a.899.899 0 0 1-.899.9zm-103.934-1.8h103.034V2.41H2.069v21.607zm103.934 123.338H1.168a.9.9 0 0 1-.9-.9V56.427a.9.9 0 0 1 .9-.9h104.834a.9.9 0 0 1 .9.9v90.028a.899.899 0 0 1-.899.9zm-103.934-1.8h103.034V57.327H2.069v88.228z"/><circle cx="134.852" cy="57.771" r="16.8" fill="#333"/><path fill="#E6E6E5" d="M134.608 39.309c-10.197 0-18.462 8.267-18.462 18.463 0 10.195 8.265 18.462 18.462 18.462 10.194 0 18.46-8.267 18.46-18.462 0-10.197-8.266-18.463-18.46-18.463zm-.302 8.791h4.918c.649.19 1.066.645.7 1.402l-4.219 5.63h3.078c.624.005 1.073.819.742 1.347l-6.593 10.548c-.479.75-1.829.334-1.58-.753l2.252-6.744h-3.614c-.59-.001-1.045-.718-.796-1.251l4.396-9.67a.9.9 0 0 1 .716-.509z"/></g></svg>