<svg xmlns="http://www.w3.org/2000/svg" width="265" height="158" viewBox="0 0 265 158">
  <g fill="none">
    <path fill="#B4B4B4" d="M263.5 157.5L111.5 157.5C110.948 157.5 110.5 157.053 110.5 156.5L110.5 38.982C110.5 38.43 110.948 37.982 111.5 37.982L263.5 37.982C264.053 37.982 264.5 38.43 264.5 38.982L264.5 156.5C264.5 157.053 264.053 157.5 263.5 157.5zM112.5 155.5L262.5 155.5 262.5 39.982 112.5 39.982 112.5 155.5zM263.5 28.982L111.5 28.982C110.948 28.982 110.5 28.534 110.5 27.982L110.5 1.982C110.5 1.43 110.948.982 111.5.982L263.5.982C264.053.982 264.5 1.43 264.5 1.982L264.5 27.982C264.5 28.535 264.053 28.982 263.5 28.982zM112.5 26.982L262.5 26.982 262.5 2.982 112.5 2.982 112.5 26.982zM101 28.982L1 28.982C.448 28.982 0 28.534 0 27.982L0 1.982C0 1.43.448.982 1 .982L101 .982C101.552.982 102 1.43 102 1.982L102 27.982C102 28.535 101.552 28.982 101 28.982zM2 26.982L100 26.982 100 2.982 2 2.982 2 26.982zM101 119.982L1 119.982C.448 119.982 0 119.535 0 118.982L0 37.982C0 37.43.448 36.982 1 36.982L101 36.982C101.552 36.982 102 37.43 102 37.982L102 118.982C102 119.535 101.552 119.982 101 119.982zM2 117.982L100 117.982 100 38.982 2 38.982 2 117.982z"/>
    <path fill="#F3F3F3" d="M19 49.153C19 50.164 18.181 50.983 17.17 50.983L12.83 50.983C11.819 50.983 11 50.164 11 49.153L11 44.811C11 43.801 11.819 42.983 12.83 42.983L17.17 42.983C18.181 42.983 19 43.801 19 44.811L19 49.153zM19 64.153C19 65.164 18.181 65.983 17.17 65.983L12.83 65.983C11.819 65.983 11 65.164 11 64.153L11 59.811C11 58.801 11.819 57.983 12.83 57.983L17.17 57.983C18.181 57.983 19 58.801 19 59.811L19 64.153z"/>
    <path fill="#333" d="M14.685,64.967 L11.844,61.312 C11.612,61.012 11.666,60.58 11.965,60.347 C12.266,60.113 12.697,60.168 12.93,60.468 L15.155,63.33 L17.964,58.644 C18.159,58.319 18.581,58.214 18.906,58.408 C19.231,58.603 19.337,59.025 19.142,59.35 L15.817,64.898 L14.685,64.967 Z"/>
    <path fill="#F3F3F3" d="M19 79.153C19 80.164 18.181 80.983 17.17 80.983L12.83 80.983C11.819 80.983 11 80.165 11 79.153L11 74.811C11 73.801 11.819 72.983 12.83 72.983L17.17 72.983C18.181 72.983 19 73.801 19 74.811L19 79.153zM19 94.152C19 95.164 18.181 95.982 17.17 95.982L12.83 95.982C11.819 95.982 11 95.164 11 94.152L11 89.81C11 88.8 11.819 87.982 12.83 87.982L17.17 87.982C18.181 87.982 19 88.8 19 89.81L19 94.152zM19 109.152C19 110.164 18.181 110.982 17.17 110.982L12.83 110.982C11.819 110.982 11 110.164 11 109.152L11 104.81C11 103.8 11.819 102.982 12.83 102.982L17.17 102.982C18.181 102.982 19 103.8 19 104.81L19 109.152z"/>
    <path fill="#333" d="M14.685,109.967 L11.844,106.312 C11.612,106.012 11.666,105.581 11.965,105.347 C12.266,105.114 12.697,105.168 12.93,105.467 L15.155,108.33 L17.964,103.643 C18.159,103.318 18.581,103.213 18.906,103.408 C19.231,103.603 19.337,104.025 19.142,104.349 L15.817,109.898 L14.685,109.967 Z"/>
    <rect width="141" height="15" x="117.5" y="6.982" fill="#F3F3F3"/>
    <rect width="84" height="7" x="9" y="10.982" fill="#F3F3F3"/>
    <path fill="#B4B4B4" d="M101,157.929 L1,157.929 C0.448,157.929 0,157.482 0,156.929 L0,130.929 C0,130.376 0.448,129.929 1,129.929 L101,129.929 C101.552,129.929 102,130.376 102,130.929 L102,156.929 C102,157.481 101.552,157.929 101,157.929 Z M2,155.929 L100,155.929 L100,131.929 L2,131.929 L2,155.929 Z"/>
    <rect width="73" height="5" x="22" y="43.982" fill="#F3F3F3"/>
    <rect width="73" height="5" x="22" y="58.982" fill="#F3F3F3"/>
    <rect width="73" height="5" x="22" y="73.982" fill="#F3F3F3"/>
    <rect width="73" height="5" x="22" y="88.982" fill="#F3F3F3"/>
    <rect width="73" height="5" x="22" y="103.982" fill="#F3F3F3"/>
    <g fill="#333" transform="translate(243 10)">
      <path d="M3.307,6.682 C1.502,6.682 0.036,5.215 0.036,3.41 C0.036,1.609 1.503,0.142 3.307,0.142 C5.111,0.142 6.577,1.609 6.577,3.41 C6.576,5.215 5.11,6.682 3.307,6.682 Z M3.307,1.061 C2.01,1.061 0.955,2.116 0.955,3.41 C0.955,4.707 2.01,5.761 3.307,5.761 C4.602,5.761 5.657,4.707 5.657,3.41 C5.656,2.115 4.602,1.061 3.307,1.061 Z"/>
      <path d="M8.504,9.069 C8.385,9.069 8.269,9.025 8.178,8.936 L5.133,5.888 C4.951,5.707 4.951,5.417 5.133,5.237 C5.312,5.057 5.602,5.057 5.783,5.237 L8.829,8.284 C9.01,8.464 9.01,8.754 8.829,8.936 C8.74,9.024 8.622,9.069 8.504,9.069 Z"/>
    </g>
    <rect width="102.542" height="5.023" x=".958" y=".97" fill="#CDCCCC" opacity=".3" transform="translate(151 61)"/>
    <rect width="102.542" height="5.022" x=".958" y=".82" fill="#CDCCCC" opacity=".3" transform="translate(151 68)"/>
    <rect width="45.667" height="5.937" x="151.958" y="52.38" fill="#CDCCCC"/>
    <rect width="26.944" height="26.944" x=".5" y=".711" fill="#CDCCCC" opacity=".3" transform="translate(120 47)"/>
    <rect width="102.542" height="5.023" x=".958" y=".769" fill="#CDCCCC" opacity=".3" transform="translate(151 97)"/>
    <rect width="102.542" height="5.022" x=".958" y=".619" fill="#CDCCCC" opacity=".3" transform="translate(151 104)"/>
    <rect width="45.667" height="5.937" x="151.958" y="88.179" fill="#CDCCCC"/>
    <rect width="26.944" height="26.944" x=".5" y=".51" fill="#CDCCCC" opacity=".3" transform="translate(120 83)"/>
    <rect width="102.542" height="5.023" x=".958" y=".567" fill="#CDCCCC" opacity=".3" transform="translate(151 133)"/>
    <rect width="102.542" height="5.022" x=".958" y=".418" fill="#CDCCCC" opacity=".3" transform="translate(151 140)"/>
    <rect width="45.667" height="5.937" x="151.958" y="123.978" fill="#CDCCCC"/>
    <rect width="26.944" height="26.944" x=".5" y=".309" fill="#CDCCCC" opacity=".3" transform="translate(120 119)"/>
    <rect width="84" height="3" x="9" y="143" fill="#F3F3F3"/>
    <rect width="52" height="3" x="25" y="143" fill="#333"/>
    <circle cx="25" cy="144.5" r="3" fill="#333"/>
    <circle cx="77" cy="144.5" r="3" fill="#333"/>
  </g>
</svg>
