<svg xmlns="http://www.w3.org/2000/svg" width="304" height="148" viewBox="0 0 304 148">
  <g fill="none">
    <path fill="#F3F3F3" d="M18.806 71.743C18.806 72.822 17.931 73.696 16.853 73.696L12.222 73.696C11.143 73.696 10.269 72.822 10.269 71.743L10.269 67.109C10.269 66.032 11.144 65.158 12.222 65.158L16.853 65.158C17.932 65.158 18.806 66.032 18.806 67.109L18.806 71.743zM18.806 87.75C18.806 88.829 17.931 89.703 16.853 89.703L12.222 89.703C11.143 89.703 10.269 88.829 10.269 87.75L10.269 83.116C10.269 82.039 11.144 81.166 12.222 81.166L16.853 81.166C17.932 81.166 18.806 82.039 18.806 83.116L18.806 87.75z"/>
    <path fill="#333" d="M14.201,88.619 L11.169,84.719 C10.921,84.399 10.98,83.938 11.298,83.689 C11.619,83.44 12.079,83.499 12.327,83.818 L14.701,86.873 L17.698,81.872 C17.906,81.525 18.357,81.413 18.704,81.62 C19.051,81.828 19.163,82.279 18.956,82.626 L15.408,88.547 L14.201,88.619 Z"/>
    <path fill="#F3F3F3" d="M18.806 103.758C18.806 104.836 17.931 105.71 16.853 105.71L12.222 105.71C11.143 105.71 10.269 104.836 10.269 103.758L10.269 99.123C10.269 98.046 11.144 97.173 12.222 97.173L16.853 97.173C17.932 97.173 18.806 98.046 18.806 99.123L18.806 103.758zM18.806 119.765C18.806 120.843 17.931 121.717 16.853 121.717L12.222 121.717C11.143 121.717 10.269 120.843 10.269 119.765L10.269 115.131C10.269 114.053 11.144 113.18 12.222 113.18L16.853 113.18C17.932 113.18 18.806 114.053 18.806 115.131L18.806 119.765zM18.806 135.771C18.806 136.849 17.931 137.724 16.853 137.724L12.222 137.724C11.143 137.724 10.269 136.849 10.269 135.771L10.269 131.137C10.269 130.06 11.144 129.187 12.222 129.187L16.853 129.187C17.932 129.187 18.806 130.06 18.806 131.137L18.806 135.771z"/>
    <path fill="#333" d="M14.201,136.641 L11.169,132.74 C10.921,132.42 10.98,131.96 11.298,131.711 C11.619,131.461 12.079,131.521 12.327,131.84 L14.701,134.894 L17.698,129.894 C17.906,129.546 18.357,129.435 18.704,129.642 C19.051,129.85 19.163,130.3 18.956,130.648 L15.408,136.569 L14.201,136.641 Z"/>
    <rect width="77.261" height="5.336" x="22.007" y="66.226" fill="#F3F3F3"/>
    <rect width="77.261" height="5.336" x="22.007" y="82.232" fill="#F3F3F3"/>
    <rect width="77.261" height="5.336" x="22.007" y="98.24" fill="#F3F3F3"/>
    <rect width="77.261" height="5.336" x="22.007" y="114.247" fill="#F3F3F3"/>
    <rect width="77.261" height="5.336" x="22.007" y="130.254" fill="#F3F3F3"/>
    <rect width="95.5" height="14.207" x="5.769" y="6.108" fill="#F3F3F3"/>
    <g fill="#333" transform="translate(90 10)">
      <path d="M2.578,4.78 C1.291,4.78 0.246,3.734 0.246,2.447 C0.246,1.163 1.291,0.118 2.578,0.118 C3.864,0.118 4.909,1.163 4.909,2.447 C4.908,3.734 3.863,4.78 2.578,4.78 Z M2.578,0.772 C1.654,0.772 0.902,1.524 0.902,2.447 C0.902,3.371 1.654,4.123 2.578,4.123 C3.501,4.123 4.252,3.372 4.252,2.447 C4.252,1.524 3.5,0.772 2.578,0.772 Z"/>
      <path d="M6.282,6.481 C6.197,6.481 6.114,6.449 6.05,6.386 L3.879,4.213 C3.75,4.084 3.75,3.878 3.879,3.749 C4.007,3.621 4.213,3.621 4.343,3.749 L6.514,5.921 C6.643,6.049 6.643,6.256 6.514,6.386 C6.45,6.449 6.366,6.481 6.282,6.481 Z"/>
    </g>
    <rect width="86.693" height="5.292" x="207.575" y="34.178" fill="#CDCCCC" opacity=".3"/>
    <rect width="86.693" height="5.292" x="207.575" y="41.395" fill="#CDCCCC" opacity=".3"/>
    <rect width="48.11" height="6.255" x="207.575" y="24.074" fill="#CDCCCC"/>
    <rect width="28.385" height="28.385" x="174.436" y="19.156" fill="#CDCCCC" opacity=".3"/>
    <rect width="86.693" height="5.292" x="207.575" y="71.891" fill="#CDCCCC" opacity=".3"/>
    <rect width="86.693" height="5.291" x="207.575" y="79.107" fill="#CDCCCC" opacity=".3"/>
    <rect width="86.693" height="5.292" x="207.575" y="108.993" fill="#CDCCCC" opacity=".3"/>
    <rect width="86.693" height="5.291" x="207.575" y="116.209" fill="#CDCCCC" opacity=".3"/>
    <rect width="48.11" height="6.254" x="207.575" y="61.788" fill="#CDCCCC"/>
    <rect width="28.385" height="28.385" x="174.436" y="56.87" fill="#CDCCCC" opacity=".3"/>
    <rect width="48.11" height="6.254" x="207.575" y="99.502" fill="#CDCCCC"/>
    <rect width="28.385" height="28.387" x="174.436" y="94.582" fill="#CDCCCC" opacity=".3"/>
    <rect width="22.008" height="2.701" x="143.117" y="56.427" fill="#E6E6E5"/>
    <polygon fill="#E6E6E5" points="107.04 12.731 135.599 55.556 133.521 57.281 104.961 14.457"/>
    <polygon fill="#E6E6E5" points="133.486 55.611 135.637 57.245 107.075 104.059 104.925 102.425"/>
    <path fill="#F50057" d="M302.418,132.951 L165.574,132.951 C164.829,132.951 164.224,132.346 164.224,131.6 L164.224,10.062 C164.224,9.316 164.828,8.711 165.574,8.711 L302.418,8.711 C303.163,8.711 303.768,9.315 303.768,10.062 L303.768,131.6 C303.768,132.346 303.163,132.951 302.418,132.951 Z M166.926,130.25 L301.067,130.25 L301.067,11.413 L166.926,11.413 L166.926,130.25 Z"/>
    <path fill="#B4B4B4" d="M106.003 25.817L1.168 25.817C.671 25.817.268 25.414.268 24.917L.268 1.51C.268 1.013.671.61 1.168.61L106.002.61C106.499.61 106.902 1.014 106.902 1.51L106.902 24.917C106.903 25.414 106.5 25.817 106.003 25.817zM2.069 24.017L105.103 24.017 105.103 2.41 2.069 2.41 2.069 24.017zM106.003 147.355L1.168 147.355C.671 147.355.268 146.953.268 146.455L.268 56.427C.268 55.93.671 55.527 1.168 55.527L106.002 55.527C106.499 55.527 106.902 55.93 106.902 56.427L106.902 146.455C106.903 146.952 106.5 147.355 106.003 147.355zM2.069 145.555L105.103 145.555 105.103 57.327 2.069 57.327 2.069 145.555z"/>
    <circle cx="134.852" cy="57.771" r="16.8" fill="#333"/>
    <path fill="#E6E6E5" d="M18.61,0.811 C8.413,0.811 0.148,9.078 0.148,19.274 C0.148,29.469 8.413,37.736 18.61,37.736 C28.804,37.736 37.07,29.469 37.07,19.274 C37.07,9.077 28.804,0.811 18.61,0.811 L18.61,0.811 Z M18.308,9.602 L23.226,9.602 C23.875,9.792 24.292,10.247 23.926,11.004 L19.707,16.634 L22.785,16.634 C23.409,16.639 23.858,17.453 23.527,17.981 L16.934,28.529 C16.455,29.279 15.105,28.863 15.354,27.776 L17.606,21.032 L13.992,21.032 C13.402,21.031 12.947,20.314 13.196,19.781 L17.592,10.111 C17.721,9.833 18.003,9.631 18.308,9.602 L18.308,9.602 Z" transform="translate(115.998 38.498)"/>
  </g>
</svg>
